HIERARCHY
ROOT Hips
{
    OFFSET 13.837541580200195 83.58354187011719 -17.991186141967773
    CHANNELS 6 Xposition Yposition Zposition Zrotation Xrotation Yrotation
    JOINT RightUpLeg
    {
        OFFSET -13.837541580200195 0.0 0.0
        CHANNELS 3 Zrotation Xrotation Yrotation
        JOINT RightLeg
        {
            OFFSET 0.0 -38.60557556152344 0.0
            CHANNELS 3 Zrotation Xrotation Yrotation
            JOINT RightFoot
            {
                OFFSET 0.0 -44.97796630859375 0.0
                CHANNELS 3 Zrotation Xrotation Yrotation
                End Site
                {
                    OFFSET 0.0 0.0 17.991186141967773
                }
            }
        }
    }
    JOINT LeftUpLeg
    {
        OFFSET 13.837541580200195 0.0 0.0
        CHANNELS 3 Zrotation Xrotation Yrotation
        JOINT LeftLeg
        {
            OFFSET 0.0 -38.60557556152344 0.0
            CHANNELS 3 Zrotation Xrotation Yrotation
            JOINT LeftFoot
            {
                OFFSET 0.0 -44.97796630859375 0.0
                CHANNELS 3 Zrotation Xrotation Yrotation
                End Site
                {
                    OFFSET 0.0 0.0 17.991186141967773
                }
            }
        }
    }
    JOINT Spine
    {
        OFFSET 0.0 22.552520751953125 0.0
        CHANNELS 3 Zrotation Xrotation Yrotation
        JOINT Spine3
        {
            OFFSET 0.0 25.1968936920166 0.0
            CHANNELS 3 Zrotation Xrotation Yrotation
            JOINT Neck
            {
                OFFSET 0.0 10.361692428588867 0.0
                CHANNELS 3 Zrotation Xrotation Yrotation
                End Site
                {
                    OFFSET 0.0 4.14467716217041 0.0
                }
            }
            JOINT LeftArm
            {
                OFFSET 14.372716903686523 0.0 0.0
                CHANNELS 3 Zrotation Xrotation Yrotation
                JOINT LeftForeArm
                {
                    OFFSET 26.563865661621094 0.0 0.0
                    CHANNELS 3 Zrotation Xrotation Yrotation
                    JOINT LeftHand
                    {
                        OFFSET 19.370059967041016 0.0 0.0
                        CHANNELS 3 Zrotation Xrotation Yrotation
                        End Site
                        {
                            OFFSET 7.74802303314209 0.0 0.0
                        }
                    }
                }
            }
            JOINT RightArm
            {
                OFFSET -14.372716903686523 0.0 0.0
                CHANNELS 3 Zrotation Xrotation Yrotation
                JOINT RightForeArm
                {
                    OFFSET -26.563865661621094 0.0 0.0
                    CHANNELS 3 Zrotation Xrotation Yrotation
                    JOINT RightHand
                    {
                        OFFSET -19.370059967041016 0.0 0.0
                        CHANNELS 3 Zrotation Xrotation Yrotation
                        End Site
                        {
                            OFFSET -7.74802303314209 0.0 0.0
                        }
                    }
                }
            }
        }
    }
}
MOTION
Frames: 4
Frame Time: 0.03333333333333333
9.24111227504909e-05 59.11827087402344 -0.0007829164969734848 7.096626839527584 -0.20356112313747696 71.9739508120568 13.67328231925338 -62.89025081935118 9.24732071231884 135.1461710701641 70.1124517070438 -141.57648050828334 -7.951386703658794e-16 1.3793457181406746e-32 -1.9878466759146984e-15 -4.840056069641264 -55.17270882070837 -6.681247987573085 177.63710456416695 84.2568223284619 -173.0431095750206 3.1805546814635164e-15 3.1805546814635168e-15 8.74652537402467e-15 4.90893907189887 13.827015785980619 -0.3858682296339318 1.3928399468856056e-06 1.5583914168550838e-06 3.5715571626947207 -5.348631245898774 -10.932758486718129 -179.49320284067625 106.3540766392655 -14.729874475472306 -161.4872544629743 -2.6249410633624327e-06 -2.3663642748746836e-06 45.94150476219313 -6.361109362927033e-15 0.0 0.0 -118.07026310283385 2.5889899399041525 154.71019101913117 2.713668700238903e-06 6.683045445258554e-07 -85.47884428684955 -1.5902773407317584e-15 -6.3611093629270335e-15 -8.827812596100317e-32
9.685350232757628e-05 59.118282318115234 -0.0007812988478690386 7.086820167437764 -0.2294244651517799 71.81636647901404 13.958845199591321 -62.98446259894164 9.433173906035504 135.44421981000286 69.9143537218158 -141.97876110064595 -7.951386703658792e-16 5.517382872562698e-33 -7.951386703658792e-16 -4.642466473154559 -55.15714083387119 -6.58845784845308 179.08261022341608 84.33980836086653 -174.54149548800044 1.5902773407317584e-15 0.0 0.0 4.6442565876763995 13.841828574003616 -0.3021220424114916 -4.653698290096301e-07 -2.430738752354362e-07 3.5583699927847383 -5.010143787946443 -11.053632326095187 -179.65434463297805 105.92412132224514 -13.512525817808815 -161.88386054693802 -5.638209738522257e-07 -3.662737839962232e-07 45.451679012220964 1.5902773407317582e-15 2.2069531490250793e-32 1.5902773407317582e-15 -118.04535587269952 2.5197899612915844 154.81285134781373 3.3781461927782375e-06 2.595544470245323e-06 -85.68005348281841 1.5902773407317584e-15 -6.3611093629270335e-15 -5.963540027744093e-16
0.00010221570119028911 59.118289947509766 -0.00078325264621526 6.9799709734200865 -0.2878572733828036 71.81326213529303 14.25818342270443 -62.99142209679994 9.6100191369243 135.92056914391887 69.87561682767506 -142.5410207096105 7.951386703658788e-16 -6.361109362927033e-15 -4.770832022195274e-15 -4.3922585905703535 -55.316559539368384 -6.479136861734892 -179.88416572081454 84.52242343252308 -175.66960017499952 -4.770832022195275e-15 -3.1805546814635168e-15 -3.975693351829396e-15 4.606172742172413 13.814034184547523 -0.2678640613770361 -8.96553444552189e-08 -7.175979771081674e-07 3.5157121851836846 -4.86976379093011 -11.15341914350108 -179.5545228674735 105.71336590624297 -13.161074403299924 -161.85362880383627 -1.6229516473787641e-06 1.4478810141657098e-06 44.88450393624111 -1.1927080055488188e-15 -6.3611093629270335e-15 -1.5902773407317584e-15 -117.99777410642237 2.4501346973211806 154.77903995652522 -9.764916922062242e-07 2.7105406986615257e-06 -85.78275575470452 1.5902773407317584e-15 -1.6552148617688095e-32 -1.1927080055488188e-15
9.93526991805993e-05 59.11830139160156 -0.0007820946630090475 6.9057387279218005 -0.29112833110256636 71.56963069299695 14.454548368207382 -63.08471060054276 9.765179210039806 135.7974321315874 69.85053843582998 -142.48086256931347 -1.5902773407317584e-15 7.172597734331508e-32 -5.168401357378215e-15 -4.294033208256098 -55.42406744093769 -6.4327971461027245 -178.31273570201907 84.23931747634857 -177.28438827792152 0.0 0.0 7.951386703658792e-16 4.435218765717919 13.738262872530976 -0.2181485943611587 -5.7792619853766443e-08 -4.5758454245872494e-07 3.54034477403041 -4.717708168278617 -11.196882546647048 -179.7327192796926 105.49762717724512 -12.707463051855289 -161.99109560484337 -3.2743077480388757e-06 4.5213074766696795e-07 44.13321905740635 -1.5902773407317582e-15 -3.9756933518293955e-16 -5.517382872562698e-33 -117.75007807540001 2.4952939685877396 154.72887507068 -7.61577445124459e-06 3.623398713777205e-06 -86.08911826109428 0.0 0.0 5.963540027744094e-16
